PathFileType	4	(X/Y/Z)	C:/Users/beibeiliu/ov580/test_trc/User2\sequence.37_training_dense_left.trc
DataRate	CameraRate	NumFrames	NumMarkers	Units	OrigDataRate	OrigDataStartFrame	OrigNumFrames
120	120	19	19	mm	120	438	500
Frame#	Time	ThumbCMC			ThumbMCP			ThumbIP			ThumbTip			IndexMCP			IndexPIP			IndexTip			MiddleMCP			MiddlePIP			MiddleTip			RingMCP			RingPIP			RingTip			PinkyMCP			PinkyPIP			PinkyTip			BackHand1			BackHand2			BackHand3	
		X0	Y0	Z0	X1	Y1	Z1	X2	Y2	Z2	X3	Y3	Z3	X4	Y4	Z4	X5	Y5	Z5	X6	Y6	Z6	X7	Y7	Z7	X8	Y8	Z8	X9	Y9	Z9	X10	Y10	Z10	X11	Y11	Z11	X12	Y12	Z12	X13	Y13	Z13	X14	Y14	Z14	X15	Y15	Z15	X16	Y16	Z16	X17	Y17	Z17	X18	Y18	Z18	
437	3.64167	-185.85	-7.98896	86.656	-158.614	9.45397	68.947	-128.315	6.81399	46.4244	-105.266	-7.19604	36.5839	-176.102	-42.3208	15.448	-150.632	-33.9106	-7.32833	-125.512	-10.1635	1.6797	-156.2	-63.9694	17.659	-132.78	-47.991	-5.91127	-110.255	-16.3363	11.2462	-139.263	-73.3171	32.6628	-114.905	-58.1718	11.7919	-101.735	-27.0391	22.459	-126.118	-75.6473	55.1736	-100.687	-63.1767	31.9552	-93.4038	-37.0049	31.0921	-165.13	-76.2655	83.1068	-180.271	-72.3238	116.876	-200.704	-48.7953	85.0301	
438	3.65	-189.76	-10.2461	88.5273	-163.427	7.6852	66.5792	-134.109	11.8331	43.4639	-111.448	-4.07845	37.2178	-173.44	-46.6665	14.7512	-155.21	-35.9582	-9.27915	-126.99	-15.7891	-0.811574	-156.902	-65.5296	14.7477	-131.055	-47.8793	-6.23028	-111.77	-21.3942	6.29878	-141.949	-72.3931	28.9042	-115.892	-61.786	11.2297	-104.355	-30.5402	19.7917	-124.538	-77.059	55.2841	-103.184	-61.2443	30.8289	-95.0106	-32.5755	31.2599	-170.342	-74.7959	84.6664	-181.802	-71.5722	110.884	-198.397	-55.1561	87.0554	
439	3.65833	-194.809	-9.66343	83.3401	-170.198	6.97866	64.4926	-142.145	11.6882	41.2695	-118.46	-1.25121	33.2247	-175.212	-50.9562	17.0119	-154.596	-38.5697	-10.1244	-129.946	-15.6331	-2.67355	-160.966	-65.8175	16.478	-136.911	-52.2918	-7.2083	-111.87	-21.2149	5.49617	-141.921	-75.0842	31.8139	-118.843	-60.1426	10.8135	-106.355	-27.1549	20.1175	-123.603	-77.9594	53.2705	-104.487	-63.0512	31.6611	-94.169	-32.4328	32.9953	-169.761	-76.2672	82.9608	-183.187	-71.9622	115.211	-198.709	-57.927	83.8838	
440	3.66667	-197.177	-15.565	84.3108	-175.097	3.79937	59.0331	-147.656	6.69062	36.088	-122.542	0.359947	23.7588	-175.879	-55.4099	13.1295	-156.932	-44.2972	-10.7564	-136.103	-19.2523	-7.13691	-160.903	-69.4086	16.0743	-135.28	-53.6528	-8.58813	-114.688	-22.9192	2.36188	-137.289	-78.6514	27.9868	-118.127	-61.5331	10.613	-112.64	-29.1683	17.3314	-123.503	-76.5605	51.4581	-103.682	-62.4725	32.2652	-100.25	-27.351	33.7985	-165.363	-79.9112	85.2	-181.32	-77.074	112.812	-199.006	-61.6726	83.9437	
441	3.675	-203.648	-17.7666	80.1539	-181.497	0.661127	54.2547	-156.388	9.83973	29.1789	-131.273	-0.678633	22.1518	-181.1	-57.8974	13.7187	-155.666	-47.2506	-10.7851	-140.384	-22.5166	-9.35402	-158.921	-72.6048	12.6711	-137.089	-57.9968	-7.47581	-118.828	-23.9842	-1.17581	-139.68	-79.5874	32.4628	-122.823	-62.8984	9.62168	-115.412	-29.8285	18.1503	-125.177	-75.9214	54.7037	-102.618	-56.2124	31.2429	-104.639	-24.8968	35.5011	-169.072	-78.5294	84.6551	-180.817	-78.269	116.268	-200.725	-63.2356	87.0439	
442	3.68333	-208.102	-21.0919	78.6627	-189.589	0.489683	53.4518	-164.344	2.87656	29.3572	-136.02	-5.11801	15.2873	-180.247	-64.5293	9.9459	-160.118	-52.8396	-11.3035	-140.802	-22.9118	-8.70913	-162.014	-74.7507	16.3078	-138.062	-60.1359	-7.76564	-122.337	-20.61	1.19625	-140.573	-80.5333	28.7231	-118.917	-60.6242	9.67287	-118.709	-26.151	22.6534	-121.699	-77.8408	50.2179	-106.649	-57.8698	30.2412	-108.486	-24.3354	36.6323	-166.111	-82.614	83.1399	-179.427	-79.0247	115.254	-201.876	-67.9454	86.0411	
443	3.69167	-209	-26.4354	80.3366	-193.503	-8.34881	46.8898	-170.023	-2.38479	21.1903	-144.524	-7.76617	11.8626	-180.523	-70.4667	10.7347	-160.507	-58.0808	-11.1724	-144.947	-30.379	-7.91761	-157.484	-79.9076	15.8162	-137.767	-61.7176	-7.05499	-128.128	-23.9247	-1.35619	-137.876	-82.7768	27.0851	-124.928	-64.8524	8.42939	-124.741	-29.3199	18.8723	-126.343	-77.4372	50.6386	-112.538	-57.5513	26.903	-112.059	-26.7655	33.0724	-164.953	-86.8714	83.6657	-177.147	-79.6521	118.652	-202.906	-70.5154	84.3392	
444	3.7	-210.033	-33.2213	76.7722	-197.286	-16.0992	46.7442	-176.806	-8.50323	21.7731	-151.882	-12.8115	9.9217	-181.161	-74.9106	11.8306	-166.659	-63.5239	-11.9	-151.988	-27.2445	-10.0849	-160.849	-82.231	14.6259	-140.124	-62.1561	-7.22764	-130.039	-24.8957	2.53788	-139.623	-84.7332	27.9335	-123.517	-60.9984	7.22316	-126.199	-31.2419	18.6407	-122.998	-80.0588	50.127	-110.338	-57.1189	25.7532	-117.035	-28.2104	28.4091	-165.451	-88.2829	83.214	-176.696	-82.7515	116.211	-201.552	-74.513	88.8243	
445	3.70833	-214.801	-35.2387	78.7307	-204.063	-16.63	47.512	-180.138	-13.0588	14.0342	-155.891	-18.8514	6.35227	-183.703	-79.4228	12.6909	-164.766	-67.0697	-11.6482	-153.039	-34.2872	-8.60262	-159.394	-87.1296	17.2022	-143.565	-66.418	-8.69079	-134.452	-29.6069	0.813158	-144.16	-86.4917	27.0243	-125.957	-68.2815	8.93207	-130.079	-33.6497	16.2175	-130.149	-81.1477	50.23	-114.917	-63.5365	26.7496	-119.312	-31.4904	26.9119	-167.057	-89.65	86.4938	-179.371	-81.6965	116.273	-204.274	-78.1566	86.8184	
446	3.71667	-217.033	-37.634	78.5926	-203.982	-22.9156	43.0601	-187.615	-15.5305	16.4582	-161.079	-22.2118	6.3316	-189.528	-83.0586	14.9017	-169.897	-69.4681	-13.8298	-156.429	-37.1337	-10.8515	-160.976	-90.4008	16.4919	-144.598	-71.392	-7.65525	-139.744	-30.1096	0.227417	-144.617	-88.8441	28.2482	-129.968	-70.0998	8.22785	-134.962	-32.7077	17.5142	-127.673	-84.1884	47.9781	-117.086	-63.6101	24.452	-121.142	-29.5979	27.4738	-166.499	-91.3297	88.1545	-181.752	-84.7703	117.913	-204.367	-79.3376	89.1983	
447	3.725	-220.258	-38.7383	77.3111	-208.362	-22.7379	45.8807	-188.441	-18.7616	18.8682	-160.008	-27.5948	3.85308	-186.91	-86.5581	14.549	-173.609	-74.0163	-13.2608	-157.878	-40.1675	-12.4939	-166.793	-92.1469	16.5985	-146.54	-73.7175	-7.5704	-140.079	-34.8639	-0.987075	-148.257	-90.5413	28.9422	-128.863	-69.6069	7.11207	-135.259	-35.1797	17.6001	-133.282	-83.7459	48.7154	-117.914	-65.3593	23.7612	-126.708	-33.7315	25.4791	-166.548	-91.735	84.0611	-180.549	-85.0559	116.159	-208.077	-80.4231	86.2742	
448	3.73333	-217.774	-42.0652	78.2565	-208.118	-25.5965	48.6202	-190.466	-22.172	13.2347	-164.201	-27.6939	-0.342991	-191.885	-87.3467	14.9362	-172.14	-79.4936	-11.5206	-161.906	-44.3587	-15.1263	-165.382	-94.1277	17.7791	-149.185	-71.9186	-9.83844	-145.739	-33.6705	-3.45262	-144.184	-93.5567	27.114	-131.722	-71.0726	5.38575	-138.341	-40.3754	12.0844	-131.126	-86.9557	47.5095	-119.711	-69.9289	24.2212	-125.496	-33.5715	23.1662	-170.293	-92.1578	83.9576	-178.756	-85.8996	115.701	-209.397	-82.3906	84.6477	
449	3.74167	-221.472	-41.7141	75.1503	-208.497	-29.8776	45.3474	-191.501	-23.8635	13.5391	-167.54	-28.5355	2.4048	-194.424	-88.752	14.376	-173.299	-79.0331	-13.425	-160.219	-48.5275	-14.5853	-167.6	-94.3495	14.0493	-151.95	-74.0755	-10.7681	-146.655	-36.341	-3.65094	-148.966	-93.6641	24.2946	-137.718	-76.9102	4.77091	-140.383	-39.0589	11.3792	-133.473	-85.9664	50.6955	-120.621	-71.1413	23.5515	-124.377	-36.3859	19.1582	-174.014	-93.7309	83.3784	-182.599	-87.4766	115.273	-208.955	-84.2331	88.0371	
450	3.75	-223.268	-41.9157	76.0557	-211.862	-28.4907	46.2721	-191.902	-26.2658	14.0228	-169.25	-30.2092	2.90838	-194.262	-91.9191	12.4414	-176.83	-82.1772	-13.3398	-165.814	-51.9451	-18.5165	-172.166	-96.055	15.7155	-151.084	-79.1804	-9.64894	-147.667	-35.2492	-2.8806	-151.74	-94.7921	24.8178	-136.342	-74.0994	3.22396	-137.02	-38.4923	12.0199	-135.483	-86.8644	45.4668	-121.768	-69.2752	21.1914	-125.54	-38.6752	18.0524	-170.923	-92.9794	88.3499	-184.526	-87.0731	118.958	-211.915	-81.5105	88.0648	
451	3.75833	-221.892	-44.0039	75.2297	-213.957	-27.6976	45.2858	-197.026	-24.4043	15.1839	-170.901	-31.2663	-3.98272	-196.269	-92.0643	16.5219	-181.58	-84.8985	-14.8011	-167.549	-51.0515	-19.7237	-169.784	-98.5227	13.2015	-151.187	-76.8058	-10.4262	-146.408	-37.224	-2.47231	-150.491	-96.254	25.2362	-136.938	-80.4394	4.31159	-139.506	-43.1137	6.78913	-137.273	-87.2694	46.9283	-123.755	-72.2549	21.2351	-124.343	-43.2825	13.8405	-175.111	-93.5863	85.7556	-181.882	-86.4455	116.995	-207.786	-84.0087	84.8579	
452	3.76667	-225.971	-41.8267	75.2152	-213.79	-31.2477	44.1029	-201.719	-25.973	14.6319	-177.829	-30.1991	-4.33217	-197.378	-94.7861	13.8899	-183.903	-89.6554	-12.9144	-164.938	-55.7533	-18.913	-169.423	-99.7287	14.3544	-155.696	-79.8266	-12.2982	-147.896	-39.4855	-5.56599	-152.453	-97.0609	29.1842	-138.062	-79.6909	4.04445	-139.743	-42.2177	5.18279	-133.055	-89.0859	48.5883	-122.413	-75.467	22.0518	-122.494	-44.3988	15.0588	-174.392	-92.9715	87.4822	-185.3	-87.0675	113.492	-214.544	-83.2444	87.8129	
453	3.775	-225.367	-45.1722	78.5126	-218.432	-33.7716	43.3085	-205.609	-30.4319	7.48037	-185.1	-33.6974	-6.83697	-195.292	-97.9565	15.4917	-179.915	-92.6056	-11.5797	-166.258	-61.0119	-22.3114	-171.904	-102.415	20.3194	-154.246	-85.0303	-10.3348	-149.924	-45.846	-8.6833	-153.255	-97.9095	27.3882	-140.288	-79.8905	1.29939	-139.723	-44.0155	4.28356	-134.84	-91.0002	45.7854	-123.924	-73.7876	20.2413	-127.913	-45.6028	13.1324	-177.868	-94.3773	87.2957	-187.177	-87.7335	117.308	-215.314	-85.6271	86.4352	
454	3.78333	-230.545	-44.9835	76.4659	-220.411	-38.764	43.6833	-212.528	-34.981	8.05331	-190.507	-39.1597	-12.0905	-201.544	-97.9367	17.7291	-184.199	-95.5698	-11.2805	-169.699	-66.4322	-24.3148	-172.285	-105.294	15.8859	-153.789	-85.6856	-10.5047	-148.004	-46.1278	-8.02578	-155.52	-100.046	28.2052	-136.344	-82.1308	3.17735	-138.43	-49.0424	3.59962	-134.552	-92.1354	50.44	-123.093	-79.3574	23.0758	-126.902	-48.0958	12.9162	-177.179	-95.7614	85.9102	-189.417	-87.3971	118.964	-211.395	-89.1741	87.2963	
455	3.79167	-227.143	-49.1892	77.3367	-224.031	-39.9025	44.4951	-212.642	-43.4733	6.79458	-195.478	-45.8198	-12.7452	-199.973	-101.296	16.8472	-183.805	-96.2688	-12.4813	-169.507	-67.6104	-21.8888	-174.423	-106.824	21.7728	-158.242	-88.197	-12.3125	-149.819	-51.3056	-10.5709	-154.856	-103.764	31.4767	-142.558	-89.5981	4.84721	-142.915	-52.1339	1.52818	-140.407	-93.3448	51.928	-126.231	-80.7848	22.3052	-127.916	-51.7843	11.154	-179.48	-96.0768	87.8502	-189.164	-85.8526	119.971	-212.525	-88.5288	87.8453	
